<?xml version="1.0" encoding="UTF-8" standalone="no"?>
<!-- Created with Inkscape (http://www.inkscape.org/) -->

<svg
   xmlns:dc="http://purl.org/dc/elements/1.1/"
   xmlns:cc="http://creativecommons.org/ns#"
   xmlns:rdf="http://www.w3.org/1999/02/22-rdf-syntax-ns#"
   xmlns:svg="http://www.w3.org/2000/svg"
   xmlns="http://www.w3.org/2000/svg"
   xmlns:sodipodi="http://sodipodi.sourceforge.net/DTD/sodipodi-0.dtd"
   xmlns:inkscape="http://www.inkscape.org/namespaces/inkscape"
   width="194.49023"
   height="60.896484"
   id="svg2"
   version="1.1"
   viewBox="0 0 194.49023 60.896484"
   inkscape:version="0.48.5 r10040"
   sodipodi:docname="ak-2.svg">
  <defs
     id="defs4" />
  <sodipodi:namedview
     id="base"
     pagecolor="#ffffff"
     bordercolor="#666666"
     borderopacity="1.0"
     inkscape:pageopacity="0.0"
     inkscape:pageshadow="2"
     inkscape:zoom="1.4"
     inkscape:cx="193.16549"
     inkscape:cy="-35.131997"
     inkscape:document-units="px"
     inkscape:current-layer="layer1"
     showgrid="false"
     inkscape:window-width="1920"
     inkscape:window-height="1018"
     inkscape:window-x="1358"
     inkscape:window-y="-8"
     inkscape:window-maximized="1"
     fit-margin-top="0"
     fit-margin-left="0"
     fit-margin-right="0"
     fit-margin-bottom="0" />
  <metadata
     id="metadata7">
    <rdf:RDF>
      <cc:Work
         rdf:about="">
        <dc:format>image/svg+xml</dc:format>
        <dc:type
           rdf:resource="http://purl.org/dc/dcmitype/StillImage" />
        <dc:title></dc:title>
      </cc:Work>
    </rdf:RDF>
  </metadata>
  <g
     inkscape:label="Layer 1"
     inkscape:groupmode="layer"
     id="layer1"
     transform="translate(-92.626945,-62.180565)">
    <g
       style="font-size:40px;font-style:normal;font-variant:normal;font-weight:normal;font-stretch:normal;line-height:125%;letter-spacing:0px;word-spacing:0px;fill:#000000;fill-opacity:1;stroke:none;font-family:Anton;-inkscape-font-specification:Anton"
       id="text2985">
      <path
         d="m 100.12304,73.721581 -7.496095,0 0,-10.427735 20.558595,0 0,59.115234 -20.558595,0 0,-10.42773 7.496095,0 z"
         style="font-size:76px"
         id="path3062" />
      <path
         d="m 122.75976,76.950096 c -1e-5,-4.72521 1.55858,-8.324816 4.67578,-10.798828 3.11717,-2.4739 7.63214,-3.797466 13.54492,-3.970703 l 0,9.908203 c -1.18752,0.07427 -2.15855,0.216521 -2.91308,0.426758 -0.75458,0.210336 -1.2803,0.482471 -1.57715,0.816406 -0.2969,0.334033 -0.48244,0.624723 -0.55664,0.87207 -0.0742,0.247444 -0.11135,0.581428 -0.11133,1.001954 -2e-5,2.300826 -0.099,4.30473 -0.29688,6.011718 -0.19793,1.707071 -0.43296,3.086301 -0.70508,4.137696 -0.27215,1.051468 -0.72983,2.05342 -1.37304,3.005859 -0.64325,0.952507 -1.19989,1.676139 -1.66992,2.170898 -0.47007,0.494823 -1.22463,1.199901 -2.26368,2.115235 1.01431,0.890654 1.76887,1.583361 2.26368,2.078125 0.49477,0.494819 1.0576,1.212266 1.68847,2.152344 0.63084,0.940128 1.08234,1.929711 1.35449,2.96875 0.27212,1.039079 0.50715,2.399759 0.70508,4.082029 0.1979,1.68231 0.29686,3.66147 0.29688,5.9375 -0.0248,0.37111 -0.0248,0.64324 0,0.81641 0.0247,0.17319 0.12368,0.43295 0.29687,0.77929 0.17316,0.34637 0.42674,0.60614 0.76075,0.7793 0.33396,0.17319 0.8473,0.35255 1.54003,0.53809 0.69269,0.18555 1.54621,0.31544 2.56055,0.38965 l 0,9.9082 c -5.91278,-0.17318 -10.42775,-1.45964 -13.54492,-3.85938 -3.1172,-2.39973 -4.67579,-5.91275 -4.67578,-10.53906 -1e-5,-0.14842 -1e-5,-0.35871 0,-0.63086 -1e-5,-0.98957 -1e-5,-1.70083 0,-2.13379 -1e-5,-0.43292 -0.0124,-1.0143 -0.0371,-1.74414 -0.0247,-0.7298 -0.0557,-1.23696 -0.0928,-1.52148 -0.0371,-0.28449 -0.099,-0.6865 -0.18555,-1.20606 -0.0866,-0.51951 -0.19174,-0.87823 -0.31543,-1.07617 -0.1237,-0.19789 -0.28451,-0.463843 -0.48242,-0.79785 -0.19792,-0.333961 -0.4144,-0.562802 -0.64942,-0.686523 -0.23503,-0.123675 -0.52572,-0.290667 -0.87207,-0.500977 -0.34635,-0.210262 -0.72363,-0.371069 -1.13183,-0.482422 -0.40821,-0.111303 -0.87208,-0.216446 -1.39161,-0.315429 l 0,-9.908203 c 0.66797,-0.123664 1.23698,-0.253546 1.70704,-0.389649 0.47005,-0.136032 0.8968,-0.340134 1.28027,-0.612305 0.38346,-0.272099 0.6927,-0.50094 0.92773,-0.686523 0.23503,-0.18551 0.43913,-0.519494 0.61231,-1.001953 0.17317,-0.482384 0.29687,-0.884402 0.37109,-1.206055 0.0742,-0.321576 0.13606,-0.878216 0.18555,-1.669922 0.0495,-0.791625 0.0742,-1.453409 0.0742,-1.985351 -1e-5,-0.531859 -1e-5,-1.379188 0,-2.541992 -1e-5,-0.272091 -1e-5,-0.482377 0,-0.63086 z"
         style="font-size:76px"
         id="path3064" />
      <path
         d="m 143.56249,114.01064 c 0,-2.59113 0.38412,-4.53774 1.15235,-5.83984 0.66406,-1.11978 1.8164,-2.06379 3.45703,-2.83203 0.83332,-0.39061 2.6953,-1.08071 5.58593,-2.07031 -1e-5,-0.013 -1e-5,-0.0325 0,-0.0586 -1e-5,-0.41665 -0.003,-0.75519 -0.01,-1.01562 -0.007,-0.2604 -0.013,-0.55337 -0.0195,-0.87891 -0.007,-0.3255 -0.0163,-0.58592 -0.0293,-0.78125 -0.013,-0.19529 -0.0326,-0.41013 -0.0586,-0.644531 -0.0261,-0.234352 -0.0554,-0.413388 -0.0879,-0.537109 -0.0326,-0.123675 -0.0781,-0.260393 -0.13672,-0.410156 -0.0586,-0.149716 -0.12371,-0.263649 -0.19531,-0.341797 -0.0716,-0.0781 -0.15301,-0.149716 -0.24415,-0.214844 -0.0911,-0.06508 -0.19857,-0.110653 -0.32226,-0.136719 -0.12371,-0.02602 -0.25717,-0.03904 -0.40039,-0.03906 -0.96355,2.4e-5 -1.44532,0.533878 -1.44531,1.601562 l 0,1.972656 -6.79688,0 c -0.013,-0.22133 -0.0195,-0.54034 -0.0195,-0.95703 0,-2.786435 0.66081,-4.827448 1.98242,-6.123048 1.32161,-1.295544 3.5319,-1.943329 6.63086,-1.943359 1.00259,3e-5 1.97265,0.140003 2.91016,0.419922 0.93748,0.279977 1.80988,0.696643 2.61718,1.25 0.80728,0.553413 1.45507,1.318386 1.94336,2.294922 0.48827,0.976587 0.73241,2.096378 0.73243,3.359373 l 0,22.32422 -6.95313,0 0,-3.04687 c -0.23438,0.85937 -0.77475,1.64062 -1.62109,2.34375 -0.84637,0.70312 -1.75782,1.05468 -2.73438,1.05468 -0.70313,0 -1.32162,-0.0618 -1.85547,-0.18554 -0.53385,-0.1237 -1.06771,-0.37435 -1.60156,-0.75196 -0.53386,-0.3776 -0.97331,-0.88216 -1.31836,-1.51367 -0.34505,-0.63151 -0.625,-1.47786 -0.83984,-2.53906 -0.21485,-1.06119 -0.32227,-2.31445 -0.32227,-3.75977 z m 7.12891,-2.73437 c -10e-6,1e-5 -10e-6,1.13933 0,3.41797 -10e-6,1.73177 0.52082,2.59766 1.5625,2.59765 0.28645,1e-5 0.53384,-0.0781 0.74219,-0.23437 0.20832,-0.15625 0.36457,-0.35807 0.46875,-0.60547 0.10415,-0.24739 0.17577,-0.48828 0.21484,-0.72266 0.0391,-0.23437 0.0586,-0.47525 0.0586,-0.72265 l 0,-7.71485 c -1.19792,0.48179 -2.00521,1.04494 -2.42187,1.68946 -0.41668,0.64454 -0.62501,1.40951 -0.625,2.29492 z"
         style=""
         id="path3066" />
      <path
         d="m 164.01171,122.40908 0,-29.296874 6.99219,0 0,3.261718 c 0.39061,-1.341118 0.93749,-2.278617 1.64062,-2.8125 0.70312,-0.533825 1.59504,-0.800751 2.67578,-0.800781 1.30207,3e-5 2.44791,0.40042 3.4375,1.201172 0.98957,0.800809 1.48436,1.962917 1.48438,3.486328 l 0,9.804687 -6.83594,0 0,-7.01172 c -1e-5,-0.351538 -0.0163,-0.647762 -0.0488,-0.88867 -0.0326,-0.240862 -0.13673,-0.471982 -0.3125,-0.693359 -0.17579,-0.221331 -0.42644,-0.332008 -0.75195,-0.332032 -0.33855,2.4e-5 -0.63803,0.149764 -0.89844,0.449219 -0.26042,0.299503 -0.39063,0.709658 -0.39062,1.230472 l 0,22.40234 z"
         style=""
         id="path3068" />
      <path
         d="m 189.55859,122.40908 -7.10938,0 0,-34.511718 7.10938,0 z"
         style=""
         id="path3070" />
      <path
         d="m 201.14062,122.76064 c -5.83334,0 -8.75,-3.04036 -8.75,-9.12109 l 0,-11.75781 c 0,-2.799459 0.78125,-5.019509 2.34375,-6.660159 1.56249,-1.640597 3.69791,-2.460908 6.40625,-2.460938 2.72134,3e-5 4.86326,0.820341 6.42578,2.460938 1.56248,1.64065 2.34373,3.8607 2.34375,6.660159 l 0,11.75781 c -2e-5,3.0599 -0.74546,5.34505 -2.23633,6.85547 -1.4909,1.51042 -3.66863,2.26562 -6.5332,2.26562 z m -1.64063,-21.99218 0,14.3164 c -1e-5,0.78126 0.15299,1.35092 0.45899,1.70899 0.30598,0.35807 0.69986,0.53711 1.18164,0.53711 0.48176,0 0.87564,-0.17904 1.18164,-0.53711 0.30598,-0.35807 0.45897,-0.92773 0.45898,-1.70899 l 0,-14.3164 c -1e-5,-1.70571 -0.54688,-2.558574 -1.64062,-2.558598 -1.09376,2.4e-5 -1.64064,0.852888 -1.64063,2.558598 z"
         style=""
         id="path3072" />
      <path
         d="m 223.95312,122.40908 -8.08594,0 -4.70703,-29.296874 7.01172,0 1.44531,14.824214 0.23437,4.7461 0.27344,-4.78516 1.6211,-14.785154 6.99218,0 z"
         style=""
         id="path3074" />
      <path
         d="m 230.41796,122.40908 0,-29.316406 6.99219,0 0,29.316406 z m 0,-31.113281 0,-3.4375 6.99219,0 0,3.4375 z"
         style=""
         id="path3076" />
      <path
         d="m 240.24218,122.38955 0,-5.82031 6.99219,0 0,5.82031 z"
         style=""
         id="path3078" />
      <path
         d="m 249.53905,112.79971 c 0,10e-6 0,-3.0078 0,-9.02344 0,-3.958313 0.6836,-6.783831 2.05079,-8.476564 1.36718,-1.69268 3.66535,-2.539033 6.89453,-2.539063 2.51301,3e-5 4.55727,0.664091 6.13281,1.992188 1.5755,1.328151 2.36326,3.157576 2.36328,5.488279 l 0,5 -7.12891,0 0,-4.6289 c -10e-6,-0.729149 -0.10743,-1.31183 -0.32226,-1.748051 -0.21486,-0.436174 -0.62827,-0.654273 -1.24024,-0.654297 -1.14584,2.4e-5 -1.71875,0.813825 -1.71875,2.441408 l 0,14.19922 c 0,0.59896 0.1302,1.14909 0.39063,1.65039 0.26041,0.5013 0.69009,0.75196 1.28906,0.75195 0.16926,1e-5 0.33528,-0.0326 0.49805,-0.0977 0.16275,-0.0651 0.33853,-0.17577 0.52734,-0.33203 0.18879,-0.15624 0.33853,-0.40689 0.44922,-0.75195 0.11067,-0.34505 0.16601,-0.76497 0.16602,-1.25977 l -0.0391,-4.39453 7.12891,0 0,4.58985 c -2e-5,2.40886 -0.77801,4.30339 -2.33398,5.68359 -1.55601,1.38021 -3.57749,2.07031 -6.06446,2.07031 -1.14584,0 -2.18099,-0.11067 -3.10547,-0.33203 -0.92448,-0.22135 -1.69596,-0.51107 -2.31445,-0.86914 -0.61849,-0.35807 -1.1556,-0.81054 -1.61133,-1.35742 -0.45573,-0.54687 -0.81055,-1.09375 -1.06445,-1.64063 -0.25391,-0.54687 -0.45573,-1.17512 -0.60547,-1.88476 -0.14974,-0.70963 -0.24414,-1.35416 -0.2832,-1.9336 -0.0391,-0.57941 -0.0586,-1.2272 -0.0586,-1.94335 z"
         style=""
         id="path3080" />
      <path
         d="m 269.63671,122.40908 0,-34.511718 7.1875,0 0,8.125 c 0.7552,-2.187472 2.18098,-3.281221 4.27734,-3.28125 1.84895,2.9e-5 3.31379,0.595732 4.39454,1.787109 1.08071,1.191433 1.62107,2.96552 1.62109,5.322266 l 0,22.558593 -7.01172,0 0,-20.19531 c -10e-6,-0.0781 0.003,-0.2311 0.01,-0.45899 0.007,-0.22784 0.01,-0.40688 0.01,-0.53711 -1e-5,-2.057264 -0.57944,-3.085909 -1.73828,-3.085933 -0.33855,2.4e-5 -0.6836,0.166039 -1.03516,0.498047 -0.35157,0.332054 -0.52735,0.869163 -0.52734,1.611326 l 0,22.16797 z"
         style=""
         id="path3082" />
    </g>
    <text
       xml:space="preserve"
       style="font-size:40px;font-style:normal;font-weight:normal;line-height:125%;letter-spacing:0px;word-spacing:0px;fill:#000000;fill-opacity:1;stroke:none;font-family:Sans"
       x="186.78571"
       y="138.43361"
       id="text3001"
       sodipodi:linespacing="125%"><tspan
         sodipodi:role="line"
         id="tspan3003"
         x="186.78571"
         y="138.43361" /></text>
    <flowRoot
       xml:space="preserve"
       id="flowRoot3017"
       style="font-size:40px;font-style:normal;font-weight:normal;line-height:125%;letter-spacing:0px;word-spacing:0px;fill:#000000;fill-opacity:1;stroke:none;font-family:Sans"><flowRegion
         id="flowRegion3019"><rect
           id="rect3021"
           width="42.426407"
           height="91.923882"
           x="703.06616"
           y="959.42816" /></flowRegion><flowPara
         id="flowPara3023"></flowPara></flowRoot>  </g>
</svg>
